<?xml version="1.0" encoding="utf-8"?>
<!-- Generator: Adobe Illustrator 18.0.0, SVG Export Plug-In . SVG Version: 6.00 Build 0)  -->
<!DOCTYPE svg PUBLIC "-//W3C//DTD SVG 1.1//EN" "http://www.w3.org/Graphics/SVG/1.1/DTD/svg11.dtd">
<svg version="1.1" id="US_UK_Download_on_the" xmlns="http://www.w3.org/2000/svg" xmlns:xlink="http://www.w3.org/1999/xlink"
	 x="0px" y="0px" viewBox="0 494.7 588 174.2" enable-background="new 0 494.7 588 174.2" xml:space="preserve">
<g>
	<path fill="#A6A6A6" d="M567.1,668.9H20.5C9.1,668.9,0,659.7,0,648.4V515.1c0-11.3,9.1-20.5,20.5-20.5h546.6
		c11.3,0,20.9,9.1,20.9,20.5V648C588,659.7,578.4,668.9,567.1,668.9L567.1,668.9z"/>
	<path d="M583.6,648.4c0,9.1-7.4,16.6-16.6,16.6H20.5c-9.1,0-16.6-7.4-16.6-16.6V515.1c0-9.1,7.4-16.6,16.6-16.6h546.6
		c9.1,0,16.6,7.4,16.6,16.6V648.4L583.6,648.4z"/>
	<g>
		<g>
			<path fill="#FFFFFF" d="M131.1,580.9c0-13.9,11.3-20.9,12.2-21.3c-6.5-9.6-17-10.9-20.5-10.9c-8.7-0.9-17,5.2-21.3,5.2
				s-11.3-5.2-18.3-4.8c-9.1,0-17.9,5.7-22.6,13.9c-10,17-2.6,42.2,7,56.2c4.8,7,10.5,14.4,17.4,13.9s9.6-4.4,18.3-4.4
				c8.3,0,10.9,4.4,18.3,4.4s12.2-7,17-13.5c5.7-7.8,7.8-15.2,7.8-15.7C145.9,603.1,131.5,597.5,131.1,580.9z"/>
			<path fill="#FFFFFF" d="M117.2,539.5c3.9-4.8,6.5-11.3,5.7-17.9c-5.7,0.4-12.2,3.9-16.6,8.3c-3.5,3.9-6.5,10.9-5.7,17
				C107.1,547.8,113.2,544.3,117.2,539.5z"/>
		</g>
	</g>
	<g>
		<path fill="#FFFFFF" d="M233.5,631.9h-10l-5.2-17h-18.7l-5.2,17h-9.6l18.7-57.9h11.3L233.5,631.9z M216.9,607.9l-4.8-15.2
			c-0.4-1.7-1.3-5.2-3-10.9l0,0c-0.4,2.6-1.3,6.1-2.6,10.9l-5.2,15.2H216.9z"/>
		<path fill="#FFFFFF" d="M281.8,610.5c0,7-1.7,12.6-5.7,17c-3.5,3.5-7.8,5.7-12.6,5.7c-5.7,0-9.6-2.2-11.8-6.1l0,0v22.2h-9.1V604
			c0-4.4,0-9.1-0.4-13.9h8.3l0.4,6.5l0,0c3-4.8,7.8-7.4,13.9-7.4c4.8,0,9.1,1.7,12.2,5.7S281.8,604,281.8,610.5z M272.2,611
			c0-3.9-0.9-7.4-2.6-10c-2.2-2.6-4.8-3.9-8.3-3.9c-2.2,0-4.4,0.9-6.1,2.2c-1.7,1.7-3,3.5-3.5,6.1c-0.4,1.3-0.4,2.2-0.4,2.6v7
			c0,3,0.9,5.7,2.6,7.8c1.7,2.2,4.4,3,7.4,3c3.5,0,6.1-1.3,8.3-3.9C271.3,618.8,272.2,615.3,272.2,611z"/>
		<path fill="#FFFFFF" d="M329.7,610.5c0,7-1.7,12.6-5.7,17c-3.5,3.5-7.8,5.7-12.6,5.7c-5.7,0-9.6-2.2-11.8-6.1l0,0v22.2h-9.1V604
			c0-4.4,0-9.1-0.4-13.9h8.3l0.4,6.5l0,0c3-4.8,7.8-7.4,13.9-7.4c4.8,0,9.1,1.7,12.2,5.7C328,598.8,329.7,604,329.7,610.5z
			 M320.1,611c0-3.9-0.9-7.4-2.6-10c-2.2-2.6-4.8-3.9-8.3-3.9c-2.2,0-4.4,0.9-6.1,2.2c-1.7,1.7-3,3.5-3.5,6.1
			c-0.4,1.3-0.4,2.2-0.4,2.6v7c0,3,0.9,5.7,2.6,7.8s4.4,3,7.4,3c3.5,0,6.1-1.3,8.3-3.9C319.3,618.8,320.1,615.3,320.1,611z"/>
		<path fill="#FFFFFF" d="M383.3,615.8c0,4.8-1.7,9.1-5.2,12.2c-3.9,3.5-9.1,5.2-15.7,5.2c-6.1,0-11.3-1.3-14.8-3.5l2.2-7.8
			c3.9,2.6,8.7,3.9,13.5,3.9c3.5,0,6.1-0.9,8.3-2.2c1.7-1.7,3-3.5,3-6.5c0-2.2-0.9-4.4-2.6-6.1c-1.7-1.7-4.4-3-7.8-4.4
			c-10-3.9-15.2-9.1-15.2-16.6c0-4.8,1.7-8.7,5.2-11.8c3.5-3,8.3-4.4,14.4-4.4c5.2,0,9.6,0.9,13.1,2.6l-2.6,7
			c-3.5-1.7-7-2.6-10.9-2.6c-3.5,0-5.7,0.9-7.8,2.6c-1.7,1.3-2.2,3-2.2,5.2s0.9,4.4,2.6,5.7c1.7,1.3,4.4,3,8.3,4.4
			c4.8,2.2,8.7,4.4,10.9,7C382.4,608.3,383.3,611.8,383.3,615.8z"/>
		<path fill="#FFFFFF" d="M414.2,597h-10v20.5c0,5.2,1.7,7.8,5.2,7.8c1.7,0,3,0,3.9-0.4l0.4,7c-1.7,0.9-4.4,0.9-7.4,0.9
			c-3.5,0-6.5-1.3-8.7-3.5c-2.2-2.2-3-6.1-3-11.3V597h-6.1v-7h6.1v-7.8l9.1-2.6v10.5h10C414.2,590.1,414.2,597,414.2,597z"/>
		<path fill="#FFFFFF" d="M460.4,610.5c0,6.5-1.7,11.8-5.7,15.7c-3.9,4.4-9.1,6.5-15.2,6.5s-10.9-2.2-14.8-6.1
			c-3.9-3.9-5.7-9.1-5.7-15.2c0-6.5,1.7-11.8,5.7-16.1c3.9-3.9,8.7-6.1,15.2-6.1c6.1,0,10.9,2.2,14.8,6.1
			C458.6,599.2,460.4,604.4,460.4,610.5z M450.8,611c0-3.9-0.9-7-2.6-10c-1.7-3.5-4.8-4.8-8.3-4.8c-3.9,0-6.5,1.7-8.7,4.8
			c-1.7,2.6-2.6,6.1-2.6,10s0.9,7,2.6,10c2.2,3.5,4.8,4.8,8.3,4.8s6.5-1.7,8.3-5.2C449.9,617.9,450.8,614.9,450.8,611z"/>
		<path fill="#FFFFFF" d="M490.4,598.3c-0.9,0-1.7-0.4-3-0.4c-3.5,0-5.7,1.3-7.4,3.9c-1.7,2.2-2.2,4.8-2.2,8.3v21.8h-9.1v-28.7
			c0-4.8,0-9.1-0.4-13.1h8.3l0.4,7.8h0.4c0.9-2.6,2.6-4.8,4.8-6.5c2.2-1.3,4.4-2.2,6.5-2.2c0.9,0,1.7,0,2.2,0
			C490.4,589.6,490.4,598.3,490.4,598.3z"/>
		<path fill="#FFFFFF" d="M532.2,609.2c0,1.7,0,3-0.4,4.4h-27.9c0,3.9,1.3,7.4,3.9,9.6c2.2,1.7,5.2,3,9.1,3s7.8-0.9,11.3-2.2
			l1.3,6.5c-3.9,1.7-8.7,2.6-13.9,2.6c-6.5,0-11.8-1.7-15.2-5.7c-3.5-3.9-5.7-8.7-5.7-15.2c0-6.1,1.7-11.8,5.2-15.7
			c3.5-4.4,8.3-6.5,14.8-6.5c6.1,0,10.5,2.2,13.5,6.5C530.9,599.2,532.2,604,532.2,609.2z M523.1,606.6c0-2.6-0.4-5.2-1.7-7
			c-1.7-2.6-3.9-3.9-7.4-3.9c-3,0-5.7,1.3-7.4,3.9c-1.7,2.2-2.6,4.4-2.6,7.4L523.1,606.6L523.1,606.6z"/>
	</g>
	<g>
		<g>
			<path fill="#FFFFFF" d="M213.4,538.2c0,5.2-1.7,9.1-4.8,11.8c-3,2.2-7,3.5-12.2,3.5c-2.6,0-4.8,0-6.5-0.4v-27.9
				c2.6-0.4,5.2-0.4,7.8-0.4c4.8,0,8.7,0.9,11.3,3C212.1,530.4,213.4,533.9,213.4,538.2z M208.6,538.2c0-3.5-0.9-5.7-2.6-7.8
				c-1.7-1.7-4.4-2.6-7.8-2.6c-1.3,0-2.6,0-3.5,0.4v21.3c0.4,0,1.7,0,3,0c3.5,0,6.1-0.9,8.3-3C208.2,544.3,208.6,542.1,208.6,538.2z
				"/>
			<path fill="#FFFFFF" d="M239.1,542.6c0,3-0.9,5.7-2.6,7.8c-1.7,2.2-4.4,3-7.4,3s-5.2-0.9-7.4-3c-1.7-2.2-2.6-4.4-2.6-7.4
				s0.9-5.7,2.6-7.8c1.7-2.2,4.4-3,7.4-3s5.2,0.9,7.4,3C238.2,537.4,239.1,539.5,239.1,542.6z M234.3,543c0-1.7-0.4-3.5-1.3-4.8
				c-0.9-1.7-2.2-2.6-3.9-2.6s-3,0.9-4.4,2.6c-0.9,1.3-1.3,3-1.3,4.8s0.4,3.5,1.3,4.8c0.9,1.7,2.2,2.6,4.4,2.6c1.7,0,3-0.9,3.9-2.6
				C233.9,546.5,234.3,544.8,234.3,543z"/>
			<path fill="#FFFFFF" d="M273.5,532.6L267,553h-4.4l-2.6-8.7c-0.9-2.2-1.3-4.4-1.7-6.5l0,0c-0.4,2.2-0.9,4.4-1.7,6.5l-2.6,8.7
				h-4.4l-6.1-20.5h4.8l2.2,9.6c0.4,2.2,0.9,4.4,1.3,6.5l0,0c0.4-1.7,0.9-3.9,1.7-6.5l3-9.6h3.9l2.6,9.6c0.9,2.2,1.3,4.8,1.7,7l0,0
				c0.4-2.2,0.9-4.4,1.3-7l2.6-9.6H273.5L273.5,532.6z"/>
			<path fill="#FFFFFF" d="M297,553h-4.4v-11.8c0-3.5-1.3-5.2-3.9-5.2c-1.3,0-2.6,0.4-3.5,1.3c-0.9,0.9-1.3,2.2-1.3,3.5V553h-4.4
				v-14.8c0-1.7,0-3.9,0-5.7h3.5v3l0,0c0.4-0.9,1.3-1.7,2.2-2.6c1.3-0.9,2.6-1.3,3.9-1.3c1.7,0,3.5,0.4,4.8,1.7
				c1.7,1.3,2.2,3.9,2.2,7V553H297z"/>
			<path fill="#FFFFFF" d="M309.7,553h-4.4v-29.6h4.4V553z"/>
			<path fill="#FFFFFF" d="M336.7,542.6c0,3-0.9,5.7-2.6,7.8c-1.7,2.2-4.4,3-7.4,3c-3,0-5.2-0.9-7.4-3c-1.7-2.2-2.6-4.4-2.6-7.4
				s0.9-5.7,2.6-7.8c1.7-2.2,4.4-3,7.4-3c3,0,5.2,0.9,7.4,3C335.8,537.4,336.7,539.5,336.7,542.6z M331.9,543c0-1.7-0.4-3.5-1.3-4.8
				c-0.9-1.7-2.2-2.6-3.9-2.6s-3,0.9-4.4,2.6c-0.9,1.3-1.3,3-1.3,4.8s0.4,3.5,1.3,4.8c0.9,1.7,2.2,2.6,4.4,2.6c1.7,0,3-0.9,3.9-2.6
				C331.5,546.5,331.9,544.8,331.9,543z"/>
			<path fill="#FFFFFF" d="M358.5,553h-3.9l-0.4-2.2l0,0c-1.3,1.7-3.5,2.6-6.1,2.6c-1.7,0-3.5-0.4-4.8-1.7c-0.9-1.3-1.7-2.6-1.7-4.4
				c0-2.6,0.9-4.4,3-5.7c2.2-1.3,5.2-2.2,8.7-1.7v-0.4c0-2.6-1.3-3.9-4.4-3.9c-2.2,0-3.9,0.4-5.2,1.3l-0.4-3c1.7-1.3,4.4-1.7,7-1.7
				c5.2,0,7.8,2.6,7.8,8.3v7.4C358.5,550.4,358.5,552.2,358.5,553z M353.7,546.1v-3c-5.2,0-7.4,1.3-7.4,3.9c0,0.9,0.4,1.7,0.9,2.6
				c0.4,0.4,1.3,0.9,2.2,0.9s1.7-0.4,2.6-0.9c0.9-0.4,1.3-1.3,1.7-2.6C353.7,546.5,353.7,546.5,353.7,546.1z"/>
			<path fill="#FFFFFF" d="M384.6,553h-3.9v-3.5l0,0c-1.3,2.6-3.5,3.9-6.5,3.9c-2.6,0-4.4-0.9-6.1-3c-1.7-2.2-2.6-4.4-2.6-7.4
				c0-3.5,0.9-6.1,2.6-8.3c1.7-1.7,3.9-3,6.5-3s4.8,0.9,5.7,2.6l0,0v-10.9h4.4v24.4C384.2,549.5,384.6,551.3,384.6,553z
				 M379.8,544.3v-3.5c0-0.4,0-0.9,0-1.3c-0.4-1.3-0.9-2.2-1.7-2.6c-0.9-0.9-1.7-1.3-3-1.3c-1.7,0-3,0.9-3.9,2.2
				c-0.9,1.3-1.3,3-1.3,5.2c0,2.2,0.4,3.5,1.3,4.8c0.9,1.3,2.2,2.2,3.9,2.2c1.3,0,2.6-0.4,3.5-1.7
				C379.4,547.4,379.8,546.1,379.8,544.3z"/>
			<path fill="#FFFFFF" d="M423.4,542.6c0,3-0.9,5.7-2.6,7.8c-1.7,2.2-4.4,3-7.4,3c-3,0-5.2-0.9-7.4-3c-1.7-2.2-2.6-4.4-2.6-7.4
				s0.9-5.7,2.6-7.8c1.7-2.2,4.4-3,7.4-3c3,0,5.2,0.9,7.4,3C422.5,537.4,423.4,539.5,423.4,542.6z M419,543c0-1.7-0.4-3.5-1.3-4.8
				c-0.9-1.7-2.2-2.6-3.9-2.6s-3,0.9-4.4,2.6c-0.9,1.3-1.3,3-1.3,4.8s0.4,3.5,1.3,4.8c0.9,1.7,2.2,2.6,4.4,2.6c1.7,0,3-0.9,3.9-2.6
				C418.6,546.5,419,544.8,419,543z"/>
			<path fill="#FFFFFF" d="M448.2,553h-4.4v-11.8c0-3.5-1.3-5.2-4.4-5.2c-1.3,0-2.6,0.4-3.5,1.3s-1.3,2.2-1.3,3.5V553h-4.4v-14.8
				c0-1.7,0-3.9,0-5.7h3.9v3l0,0c0.4-0.9,1.3-1.7,2.2-2.6c1.3-0.9,2.6-1.3,4.4-1.3s3.5,0.4,4.8,1.7c1.7,1.3,2.2,3.9,2.2,7V553H448.2
				z"/>
			<path fill="#FFFFFF" d="M478.7,536h-5.2v10c0,2.6,0.9,3.9,2.6,3.9c0.9,0,1.3,0,2.2,0v3.5c-0.9,0.4-2.2,0.4-3.5,0.4
				c-1.7,0-3-0.4-4.4-1.7c-0.9-1.3-1.3-3-1.3-5.7V536h-3v-3.5h3v-3.5l4.4-1.3v5.2h5.2L478.7,536L478.7,536z"/>
			<path fill="#FFFFFF" d="M503.1,553h-4.4v-11.8c0-3.5-1.3-5.7-3.9-5.7c-2.2,0-3.5,0.9-4.4,3c0,0.4,0,0.9,0,1.7v12.2h-4.4v-29.2
				h4.4v12.2l0,0c1.3-2.2,3.5-3.5,6.1-3.5c1.7,0,3.5,0.4,4.8,1.7c1.7,1.7,2.2,3.9,2.2,7C503.1,540.8,503.1,553,503.1,553z"/>
			<path fill="#FFFFFF" d="M527.9,542.1c0,0.9,0,1.3,0,2.2H514c0,2.2,0.9,3.5,2.2,4.8c1.3,0.9,2.6,1.3,4.4,1.3
				c2.2,0,3.9-0.4,5.7-0.9l0.9,3c-1.7,0.9-4.4,1.3-7,1.3c-3,0-5.7-0.9-7.4-2.6c-1.7-1.7-2.6-4.4-2.6-7.4c0-3,0.9-5.7,2.6-7.8
				c1.7-2.2,4.4-3.5,7-3.5c3,0,5.2,1.3,6.5,3.5C527.5,537.4,527.9,539.5,527.9,542.1z M523.5,540.8c0-1.3-0.4-2.6-0.9-3.5
				c-0.9-1.3-2.2-1.7-3.5-1.7c-1.3,0-2.6,0.4-3.5,1.7c-0.9,0.9-1.3,2.2-1.3,3.5C514,540.8,523.5,540.8,523.5,540.8z"/>
		</g>
	</g>
</g>
</svg>
